<?xml version="1.0" encoding="UTF-8"?>
<svg xmlns="http://www.w3.org/2000/svg" viewBox="0 0 144 144" width="144" height="144" fill="none">
  <g fill="#165DFF">
    <circle cx="72" cy="16.5" r="3.5"/>
    <rect x="70.25" y="19.5" width="3.5" height="9" rx="1.75"/>
    <rect x="53.5" y="43" width="9" height="36" rx="4.5"/>
    <rect x="81.5" y="43" width="9" height="36" rx="4.5"/>
  </g>
  <g stroke="#165DFF" stroke-width="5" stroke-linecap="round" stroke-linejoin="round" fill="none">
    <path d="M 49 36.5 C 49 31.5 95 31.5 95 36.5 C 107 38 111 54 109 70 C 107 84 95 87 72 87 C 49 87 37 84 35 70 C 33 54 37 38 49 36.5 Z"/>
    <path d="M 40 88.5 Q 72 96.5 104 88.5"/>
  </g>
  <text x="72" y="122" text-anchor="middle" fill="#165DFF" font-family="PingFang SC, Microsoft YaHei, Noto Sans SC, sans-serif" font-size="15" font-weight="600">&#x5C0F;&#x9752;&#x540C;&#x5B66;</text>
</svg>
